# xmcd
#
# Track frame offsets:
#	150
#	16097
#	33275
#	46617
#	64547
#	79550
#	98115
#	114127
#	131230
#	146680
#	162192
#	180712
#	193632
#	210360
#	231660
#	248077
#
# Disc length: 3460 seconds
#
# Revision: 1
# Processed by: cddbd v1.5PL3 Copyright (c) Steve Scherf et al.
# Submitted via: audiograbber 1.82.02
#
DISCID=c80d8210
DTITLE=Paveier - X. Johr
DYEAR=1993
DGENRE=Kölsch - Karneval
TTITLE0=Buenos Dias Mathias
TTITLE1=Mer han de Musik bestellt
TTITLE2=Beim Toni aan d'r Ihsbud
TTITLE3=Hey hey Marie
TTITLE4=Sommer, Sonne, Sand und Meer
TTITLE5=Staats es d'r Bock
TTITLE6=Lieber schweigen
TTITLE7=Alexandra
TTITLE8=Heut' brennt mein Iglu
TTITLE9=Gran Canaria
TTITLE10=Er war der weisseste Mann am Strand
TTITLE11=Frühling
TTITLE12=Du und ich
TTITLE13=Wat hammer eijentlich zo verliere Elly
TTITLE14=Ole Amanda
TTITLE15=Im Garten sind die Pflaumen reif
EXTD=
EXTT0=
EXTT1=
EXTT2=
EXTT3=
EXTT4=
EXTT5=
EXTT6=
EXTT7=
EXTT8=
EXTT9=
EXTT10=
EXTT11=
EXTT12=
EXTT13=
EXTT14=
EXTT15=
PLAYORDER=
